<?xml version="1.0" standalone="no"?>
<!DOCTYPE svg PUBLIC "-//W3C//DTD SVG 20010904//EN"
 "http://www.w3.org/TR/2001/REC-SVG-20010904/DTD/svg10.dtd">
<svg version="1.0" xmlns="http://www.w3.org/2000/svg"
 width="512.000000pt" height="512.000000pt" viewBox="0 0 512.000000 512.000000"
 preserveAspectRatio="xMidYMid meet">
<metadata>
Created by potrace 1.14, written by Peter Selinger 2001-2017
</metadata>
<g transform="translate(0.000000,512.000000) scale(0.100000,-0.100000)"
fill="#000000" stroke="none">
<path d="M2485 5110 c-22 -4 -58 -11 -80 -15 -59 -10 -182 -52 -245 -82 -450
-220 -703 -673 -648 -1163 44 -391 297 -736 662 -905 42 -19 79 -35 82 -35 3
0 36 -9 73 -20 l68 -21 -1 -622 -1 -622 -1082 0 -1081 0 -39 -31 c-76 -60 -71
-14 -70 -787 2 -675 3 -693 22 -727 12 -21 39 -44 65 -58 l44 -22 2311 0 2310
0 40 23 c26 14 48 37 61 64 22 42 22 48 22 715 0 378 -3 689 -9 708 -9 37 -45
78 -89 101 -16 8 -63 13 -125 14 l-100 1 -2 94 c-3 116 -6 130 -40 171 -50 59
-50 59 -533 59 -387 0 -445 -2 -472 -16 -70 -36 -90 -79 -93 -204 -2 -52 -3
-97 -4 -100 -1 -3 -146 -5 -323 -5 l-323 1 0 621 0 621 75 22 c179 50 372 170
508 314 156 165 242 335 298 591 10 50 13 289 3 341 -5 27 -12 65 -15 84 -10
63 -65 214 -106 292 -159 299 -430 503 -773 584 -75 18 -320 26 -390 14z"/>
</g>
</svg>
